<svg width="128" height="128" viewBox="0 0 128 128" fill="none" xmlns="http://www.w3.org/2000/svg">
  <rect width="128" height="128" rx="28" fill="#F3F6F8"/>
  <rect x="4" y="4" width="120" height="120" rx="24" stroke="#D5DDE5" stroke-width="2"/>
  <path
    d="M58 30H39C31.268 30 25 36.268 25 44C25 51.732 31.268 58 39 58H51C58.18 58 64 63.82 64 71C64 78.18 58.18 84 51 84H26"
    stroke="#0F172A"
    stroke-width="15"
    stroke-linecap="round"
    stroke-linejoin="round"
  />
  <path
    d="M58 30H39C31.268 30 25 36.268 25 44C25 51.732 31.268 58 39 58H51C58.18 58 64 63.82 64 71C64 78.18 58.18 84 51 84H26"
    stroke="#FFFDF7"
    stroke-width="3.5"
    stroke-linecap="round"
    stroke-linejoin="round"
    stroke-dasharray="10 10"
  />
  <path
    d="M82 29V87H106"
    stroke="#0F172A"
    stroke-width="15"
    stroke-linecap="round"
    stroke-linejoin="round"
  />
  <path
    d="M82 29V87H106"
    stroke="#FFFDF7"
    stroke-width="3.5"
    stroke-linecap="round"
    stroke-linejoin="round"
    stroke-dasharray="10 10"
  />
  <circle cx="82" cy="29" r="8" fill="#0F766E"/>
  <circle cx="64" cy="71" r="6" fill="#D4A24C"/>
</svg>
